<svg xmlns="http://www.w3.org/2000/svg" id="mainsvg" width="539.4705078125" height="719.396875" viewBox="-29.5859375 -10 490.427734375 654.90625"><defs><marker id="arrow" viewBox="0 0 10 10" refX="10" refY="5" markerWidth="5" markerHeight="5" orient="auto-start-reverse" fill="black"><path stroke="black" d="M 0 0 L 10 5 L 0 10 z"/></marker><marker id="Many" viewBox="0 0 16 16" refX="15" refY="8" markerWidth="15" markerHeight="15" orient="auto-start-reverse"><path stroke="black" d="M0 8H15M15 15L2 8L15 1" fill="none"/></marker><marker id="ZeroOrOne" viewBox="0 0 16 10" refX="15" refY="5" markerWidth="21" markerHeight="21" orient="auto-start-reverse"><path d="M9 5H16" stroke="black" fill="none"/><circle cx="5" cy="5" r="4.5" stroke="black" fill="#fff"/><path d="M12 0L12 10" stroke="black" fill="none"/></marker><marker id="OneOnlyOne" viewBox="0 0 10 14" refX="10" refY="7" markerWidth="13" markerHeight="13" orient="auto-start-reverse"><path d="M0 7H4M4 7H7M4 7V0M4 7V14M7 7H10M7 7V0M7 7V14" stroke="black" fill="none"/></marker><marker id="OneOrMany" viewBox="0 0 16 16" refX="15" refY="8" markerWidth="15" markerHeight="15" orient="auto-start-reverse"><path stroke="black" d="M2 1V15M2 8L15 15M2 8L15 1M2 8H0M2 8H15" fill="none"/></marker><marker id="ZeroOrMany" viewBox="0 0 25 16" refX="23" refY="8" markerWidth="25" markerHeight="25" orient="auto-start-reverse"><path d="M13 8H27M27 15L14 8L27 1" stroke="black" fill="none"/><path d="M13.5 7.5C13.5 10.7795 10.6254 13.5 7 13.5C3.37461 13.5 0.5 10.7795 0.5 7.5C0.5 4.22054 3.37461 1.5 7 1.5C10.6254 1.5 13.5 4.22054 13.5 7.5Z" stroke="black" fill="#fff"/></marker><marker id="aggregation" viewBox="0 0 10 6" refX="9.3" refY="2.8" markerWidth="23" markerHeight="15" orient="auto-start-reverse"><path stroke="black" fill="#fff" stroke-width="0.7" d="M1.01614 2.82609L5 0.574341L8.98386 2.82609L5 5.07783L1.01614 2.82609Z"/></marker><marker id="composition" viewBox="0 0 10 6" refX="9.7" refY="2.8" markerWidth="18" markerHeight="15" orient="auto-start-reverse"><path stroke="black" fill="black" d="M1.01614 2.82609L5 0.574341L8.98386 2.82609L5 5.07783L1.01614 2.82609Z"/></marker><marker id="implementation" viewBox="0 0 8 10" refX="8" refY="5" markerWidth="20" markerHeight="20" orient="auto-start-reverse"><path stroke="black" fill="#fff" stroke-width="0.7" d="M0.750001 1.10289L7.5 5L0.750001 8.89712L0.750001 1.10289Z"/></marker><marker id="dependency" viewBox="0 0 12 12" refX="11" refY="6" markerWidth="12" markerHeight="11" orient="auto-start-reverse"><path stroke="black" fill="#fff" d="M1 5.93162H10.886M10.886 5.93162L1 0.5M10.886 5.93162L1 11"/></marker><marker id="inheritance" viewBox="0 0 8 10" refX="8" refY="5" markerWidth="20" markerHeight="20" orient="auto-start-reverse"><path stroke="black" fill="#fff" stroke-width="0.7" d="M0.750001 1.10289L7.5 5L0.750001 8.89712L0.750001 1.10289Z"/></marker><marker id="association" viewBox="0 0 12 12" refX="11" refY="6" markerWidth="12" markerHeight="11" orient="auto-start-reverse"><path stroke="black" d="M1 5.93162H10.886M10.886 5.93162L1 0.5M10.886 5.93162L1 11"/></marker><filter id="shadowOLD" x="-50%" y="-50%" width="250%" height="250%"><feDropShadow flood-color="black" flood-opacity="0.3" dx="1" dy="1" stdDeviation="2"> </feDropShadow></filter><filter id="shadow-path" filterUnits="userSpaceOnUse" x="-29.5859375" y="-10" width="490.427734375px" height="644.90625px"><feDropShadow flood-color="black" flood-opacity="0.1" dx="1" dy="1" stdDeviation="1"> </feDropShadow></filter><filter id="shadow" filterUnits="userSpaceOnUse" x="-29.5859375" y="-10" width="590.427734375px" height="744.90625px"><feDropShadow flood-color="black" flood-opacity="0.1" dx="1" dy="1" stdDeviation="1"> </feDropShadow></filter></defs><rect x="-29.5859375" y="-10" width="490.427734375" height="644.90625" fill="#fff"/><g transform="translate(0, 0)"><rect width="115.5703125" height="33.3671875" stroke="black" fill="white" stroke-width="2" transform="translate(0, 0)" rx="3"/><text fill="black" font-size="16" font-weight="normal" transform="translate(8, 8)" alignment-baseline="middle" font-family="Arial"><tspan x="0" dy="16" font-family="Arial" font-size="16" font-weight="normal">CLICK DOOR</tspan></text></g><g transform="translate(-19.3828125, 61.3671875)"><path d="M 77.16796875,0 L 154.3359375 77.16796875 L 77.16796875 154.3359375 L 0 77.16796875 Z" fill="white" stroke="black" stroke-dasharray="none" stroke-width="2"/><g transform="translate(34.05078125, 43.1171875)"><rect width="86.234375" height="68.1015625" stroke="black" fill="none" stroke-width="0" transform="translate(0, 0)" rx="2"/><text fill="black" font-size="16" font-weight="normal" transform="translate(8, 8)" alignment-baseline="middle" font-family="Arial"><tspan x="0" dy="16" font-family="Arial" font-size="16" font-weight="normal">CHECKS</tspan><tspan x="0" dy="16" font-family="Arial" font-size="16" font-weight="normal">ARRAY</tspan><tspan x="0" dy="16" font-family="Arial" font-size="16" font-weight="normal">FOR KEY</tspan></text></g></g><g transform="translate(181.6513671875, 121.8515625)"><rect width="48.015625" height="33.3671875" stroke="black" fill="white" stroke-width="2" transform="translate(0, 0)" rx="3"/><text fill="black" font-size="16" font-weight="normal" transform="translate(8, 8)" alignment-baseline="middle" font-family="Arial"><tspan x="0" dy="16" font-family="Arial" font-size="16" font-weight="normal">YES</tspan></text></g><g transform="translate(117.1591796875, 267.0703125)"><path d="M 88.5,0 L 177 88.5 L 88.5 177 L 0 88.5 Z" fill="white" stroke="black" stroke-dasharray="none" stroke-width="2"/><g transform="translate(25.3671875, 63.1328125)"><rect width="126.265625" height="50.734375" stroke="black" fill="none" stroke-width="0" transform="translate(0, 0)" rx="2"/><text fill="black" font-size="16" font-weight="normal" transform="translate(8, 8)" alignment-baseline="middle" font-family="Arial"><tspan x="0" dy="16" font-family="Arial" font-size="16" font-weight="normal">Door is locked. </tspan><tspan x="0" dy="16" font-family="Arial" font-size="16" font-weight="normal">Use key?</tspan></text></g></g><g transform="translate(340.857421875, 338.88671875)"><rect width="48.8984375" height="33.3671875" stroke="black" fill="white" stroke-width="2" transform="translate(0, 0)" rx="3"/><text fill="black" font-size="16" font-weight="normal" transform="translate(8, 8)" alignment-baseline="middle" font-family="Arial"><tspan x="0" dy="16" font-family="Arial" font-size="16" font-weight="normal">USE</tspan></text></g><g transform="translate(279.771484375, 504.12109375)"><rect width="171.0703125" height="33.3671875" stroke="black" fill="white" stroke-width="2" transform="translate(0, 0)" rx="3"/><text fill="black" font-size="16" font-weight="normal" transform="translate(8, 8)" alignment-baseline="middle" font-family="Arial"><tspan x="0" dy="16" font-family="Arial" font-size="16" font-weight="normal">You escape the room!</tspan></text></g><g transform="translate(341.755859375, 582.85546875)"><rect width="47.1015625" height="33.3671875" stroke="black" fill="white" stroke-width="2" transform="translate(0, 0)" rx="3"/><text fill="black" font-size="16" font-weight="normal" transform="translate(8, 8)" alignment-baseline="middle" font-family="Arial"><tspan x="0" dy="16" font-family="Arial" font-size="16" font-weight="normal">WIN</tspan></text></g><g transform="translate(174.9951171875, 504.12109375)"><rect width="61.328125" height="33.3671875" stroke="black" fill="white" stroke-width="2" transform="translate(0, 0)" rx="3"/><text fill="black" font-size="16" font-weight="normal" transform="translate(8, 8)" alignment-baseline="middle" font-family="Arial"><tspan x="0" dy="16" font-family="Arial" font-size="16" font-weight="normal">DONT</tspan></text></g><g transform="translate(138.7958984375, 574.171875)"><rect width="133.7265625" height="50.734375" stroke="black" fill="white" stroke-width="2" transform="translate(0, 0)" rx="3"/><text fill="black" font-size="16" font-weight="normal" transform="translate(8, 8)" alignment-baseline="middle" font-family="Arial"><tspan x="0" dy="16" font-family="Arial" font-size="16" font-weight="normal">You are trapped </tspan><tspan x="0" dy="16" font-family="Arial" font-size="16" font-weight="normal">in this room.</tspan></text></g><g transform="translate(37.78515625, 338.88671875)"><rect width="40" height="33.3671875" stroke="black" fill="white" stroke-width="2" transform="translate(0, 0)" rx="3"/><text fill="black" font-size="16" font-weight="normal" transform="translate(8, 8)" alignment-baseline="middle" font-family="Arial"><tspan x="0" dy="16" font-family="Arial" font-size="16" font-weight="normal">NO</tspan></text></g><g transform="translate(-19.5859375, 495.4375)"><rect width="154.7421875" height="50.734375" stroke="black" fill="white" stroke-width="2" transform="translate(0, 0)" rx="3"/><text fill="black" font-size="16" font-weight="normal" transform="translate(8, 8)" alignment-baseline="middle" font-family="Arial"><tspan x="0" dy="16" font-family="Arial" font-size="16" font-weight="normal">Door is locked.</tspan><tspan x="0" dy="16" font-family="Arial" font-size="16" font-weight="normal">Find key to escape.</tspan></text></g><path d="M 57.78515625,33.3671875 L 57.78515625 47.3671875 L 57.78515625 61.3671875" fill="none" stroke="black" stroke-dasharray="none" stroke-width="2" marker-end="url(#arrow)"/><path d="M 134.953125,138.53515625 L 148.953125 138.53515625 L 181.6513671875 138.53515625" fill="none" stroke="black" stroke-dasharray="none" stroke-width="2" marker-end="url(#arrow)"/><path d="M 205.6591796875,155.21875 L 205.6591796875 253.0703125 L 205.6591796875 267.0703125" fill="none" stroke="black" stroke-dasharray="none" stroke-width="2" marker-end="url(#arrow)"/><path d="M 294.1591796875,355.5703125 L 308.1591796875 355.5703125 L 340.857421875 355.5703125" fill="none" stroke="black" stroke-dasharray="none" stroke-width="2" marker-end="url(#arrow)"/><path d="M 365.306640625,372.25390625 L 365.306640625 481.4375 L 365.306640625 504.12109375" fill="none" stroke="black" stroke-dasharray="none" stroke-width="2" marker-end="url(#arrow)"/><path d="M 365.306640625,537.48828125 L 365.306640625 560.171875 L 365.306640625 582.85546875" fill="none" stroke="black" stroke-dasharray="none" stroke-width="2" marker-end="url(#arrow)"/><path d="M 205.6591796875,444.0703125 L 205.6591796875 481.4375 L 205.6591796875 504.12109375" fill="none" stroke="black" stroke-dasharray="none" stroke-width="2" marker-end="url(#arrow)"/><path d="M 205.6591796875,537.48828125 L 205.6591796875 560.171875 L 205.6591796875 574.171875" fill="none" stroke="black" stroke-dasharray="none" stroke-width="2" marker-end="url(#arrow)"/><path d="M 57.78515625,215.703125 L 57.78515625 253.0703125 L 57.78515625 338.88671875" fill="none" stroke="black" stroke-dasharray="none" stroke-width="2" marker-end="url(#arrow)"/><path d="M 57.78515625,372.25390625 L 57.78515625 481.4375 L 57.78515625 495.4375" fill="none" stroke="black" stroke-dasharray="none" stroke-width="2" marker-end="url(#arrow)"/><g transform="translate(136.953125, 112.16796875)"><rect width="18.6982421875" height="23.3671875" stroke="none" fill="white" stroke-width="0" transform="translate(0, 0)" rx="2"/><text fill="black" font-size="14" font-weight="normal" transform="translate(4, 4)" alignment-baseline="middle" font-family="Arial"><tspan x="0" dy="14" font-family="Arial" font-size="14" font-weight="normal">✓</tspan></text></g><g transform="translate(59.78515625, 218.01953125)"><rect width="17.337890625" height="23.3671875" stroke="none" fill="white" stroke-width="0" transform="translate(0, 0)" rx="2"/><text fill="black" font-size="14" font-weight="normal" transform="translate(4, 4)" alignment-baseline="middle" font-family="Arial"><tspan x="0" dy="14" font-family="Arial" font-size="14" font-weight="normal">X</tspan></text></g><g transform="translate(296.1591796875, 329.203125)"><rect width="18.6982421875" height="23.3671875" stroke="none" fill="white" stroke-width="0" transform="translate(0, 0)" rx="2"/><text fill="black" font-size="14" font-weight="normal" transform="translate(4, 4)" alignment-baseline="middle" font-family="Arial"><tspan x="0" dy="14" font-family="Arial" font-size="14" font-weight="normal">✓</tspan></text></g><g transform="translate(207.6591796875, 446.38671875)"><rect width="17.337890625" height="23.3671875" stroke="none" fill="white" stroke-width="0" transform="translate(0, 0)" rx="2"/><text fill="black" font-size="14" font-weight="normal" transform="translate(4, 4)" alignment-baseline="middle" font-family="Arial"><tspan x="0" dy="14" font-family="Arial" font-size="14" font-weight="normal">X</tspan></text></g></svg>